<?xml version="1.0" standalone="no"?>
<!DOCTYPE svg PUBLIC "-//W3C//DTD SVG 20010904//EN"
 "http://www.w3.org/TR/2001/REC-SVG-20010904/DTD/svg10.dtd">
<svg version="1.0" xmlns="http://www.w3.org/2000/svg"
 width="32.000000pt" height="32.000000pt" viewBox="0 0 32.000000 32.000000"
 preserveAspectRatio="xMidYMid meet">

<g transform="translate(0.000000,32.000000) scale(0.100000,-0.100000)"
fill="#000000" stroke="none">
<path d="M116 300 c-106 -32 -136 -174 -52 -248 59 -52 141 -50 198 5 79 76
44 213 -63 243 -39 11 -44 11 -83 0z m128 -59 c26 -27 31 -39 31 -81 0 -43 -5
-54 -33 -82 -47 -48 -117 -48 -164 0 -28 28 -33 39 -33 81 0 52 25 92 70 112
37 16 96 3 129 -30z"/>
<path d="M122 238 c-12 -12 -17 -48 -6 -48 3 0 14 10 24 23 18 21 20 21 36 5
16 -15 15 -18 -5 -44 -20 -26 -29 -64 -13 -64 4 1 17 17 30 36 37 59 25 104
-28 104 -14 0 -31 -5 -38 -12z"/>
<path d="M150 80 c0 -5 5 -10 10 -10 6 0 10 5 10 10 0 6 -4 10 -10 10 -5 0
-10 -4 -10 -10z"/>
</g>
</svg>
